<svg id="instagram"
  xmlns="http://www.w3.org/2000/svg" width="32" height="32" viewBox="0 0 32 32">
  <defs>
    <style>
      .cls-1 {
        opacity: 0.3;
      }

      .cls-2 {
        fill: #fff;
      }
    </style>
  </defs>
  <g id="instagram-2" data-name="instagram" class="cls-1">
    <path id="Shape" class="cls-2" d="M10.636,1.14a4.938,4.938,0,0,1-9.877,0A4.921,4.921,0,0,1,.9,0H0V6.838H11.4V0h-.9a4.976,4.976,0,0,1,.137,1.14Z" transform="translate(10.28 14.86)"/>
    <path id="Shape-2" data-name="Shape" class="cls-2" d="M2.659,8.357A2.659,2.659,0,1,1,5.318,5.7,2.662,2.662,0,0,1,2.659,8.357Zm5.7-5.318H5.318V0H8.357V3.038Z" transform="translate(13.319 10.302)"/>
    <path id="Shape-3" data-name="Shape" class="cls-2" d="M16,32A16,16,0,0,1,4.687,4.687,16,16,0,0,1,27.314,27.314,15.9,15.9,0,0,1,16,32ZM10.279,8.023A2.292,2.292,0,0,0,8,10.3V21.7a2.291,2.291,0,0,0,2.279,2.279h11.4a2.291,2.291,0,0,0,2.28-2.279V10.3a2.294,2.294,0,0,0-2.28-2.28Z"/>
  </g>
</svg>
