<svg id="logo-html"
  xmlns="http://www.w3.org/2000/svg" width="26.945" height="34.09" viewBox="0 0 26.945 34.09">
  <defs>
    <style>
      .cls-1 {
        fill: #ffc600;
      }
    </style>
  </defs>
  <g id="logo-html-2" data-name="logo-html">
    <path id="Shape" class="cls-1" d="M13.474,34.09h0L0,26.073V1.412L13.472,0l.148.017,13.325,1.4V26.075L26.9,26.1,13.474,34.09ZM1.925,15.127h0v9.851L13.472,31.85,25.02,24.978V14.957l-3.415,2.036.011,5.177-8.143,4.873-.046-.025L5.406,22.195l.013-1.414,7.973,4.74-.018-1.076-7.979-4.8.015-1.416,7.943,4.728-.016-1.044ZM13.4,6.787h0L2.034,13.622,13.39,20.373l1.8-1.081L13.337,18.2l.014-1.413,3.031,1.787.782-.523-3.827-2.275.014-1.415,5.03,2.992.86-.507-5.9-3.513.014-1.416,7.094,4.221,4.478-2.64L13.4,6.787Zm.089-1.557v.1l11.525,6.792V3.147L13.473,1.935,1.925,3.147v8.97L13.319,5.333v-.11l.088.057.085-.05Z"/>
  </g>
</svg>
