<svg xmlns="http://www.w3.org/2000/svg" width="162.192" height="34.944" viewBox="0 0 162.192 34.944">
  <defs>
    <style>
      .cls-1 {
        fill: #ffc600;
      }
    </style>
  </defs>
  <g id="logo" transform="translate(-0.88 -0.728)">
    <path id="logo-2" data-name="logo" class="cls-1" d="M122.592,34.944a18.453,18.453,0,0,1-6.894-1.254,16.562,16.562,0,0,1-5.61-3.763,16.853,16.853,0,0,1-3.726-5.621,18.368,18.368,0,0,1-1.242-6.835,18.366,18.366,0,0,1,1.242-6.834,16.854,16.854,0,0,1,3.726-5.622,16.56,16.56,0,0,1,5.61-3.762A18.452,18.452,0,0,1,122.592,0a17.281,17.281,0,0,1,8.352,2.088,15.87,15.87,0,0,1,6.048,5.688l-6.624,3.84A7.592,7.592,0,0,0,127.2,8.568a9.835,9.835,0,0,0-4.608-1.08,9.534,9.534,0,0,0-7.128,2.736,9.991,9.991,0,0,0-2.664,7.248,9.992,9.992,0,0,0,2.664,7.249,9.537,9.537,0,0,0,7.128,2.736,9.8,9.8,0,0,0,4.632-1.1,7.489,7.489,0,0,0,3.144-3.024l6.624,3.84a15.518,15.518,0,0,1-6,5.688A17.393,17.393,0,0,1,122.592,34.944ZM55.68,34.272H34.56V.672H55.44V8.064H42.24v5.568h12v7.3h-12V26.88H55.68v7.391Zm106.511,0H141.072V.672h20.88V8.064h-13.2v5.568h12v7.3h-12V26.88h13.44v7.391Zm-61.871,0H92.64V.672h7.681Zm-31.776,0h0L57.6.672H66l7.44,24.719L80.88.672h8.4l-10.944,33.6Zm-55.1,0H0V.672H13.44a16.606,16.606,0,0,1,6.39,1.206A15.657,15.657,0,0,1,25.08,5.5,16.242,16.242,0,0,1,28.59,10.9a17.954,17.954,0,0,1,1.17,6.57,17.947,17.947,0,0,1-1.17,6.57,16.237,16.237,0,0,1-3.51,5.406,15.684,15.684,0,0,1-5.251,3.618A16.606,16.606,0,0,1,13.44,34.272ZM7.68,8.064V26.88h5.76A8.59,8.59,0,0,0,19.9,24.312a9.489,9.489,0,0,0,2.471-6.84,9.492,9.492,0,0,0-2.471-6.84A8.593,8.593,0,0,0,13.44,8.064Z" transform="translate(0.88 0.728)" />
  </g>
</svg>
