<svg id="twitter"
  xmlns="http://www.w3.org/2000/svg" width="32" height="32" viewBox="0 0 32 32">
  <defs>
    <style>
      .cls-1 {
        opacity: 0.3;
      }

      .cls-2 {
        fill: #fff;
      }
    </style>
  </defs>
  <g id="twitter-2" data-name="twitter" class="cls-1">
    <path id="Shape" class="cls-2" d="M16,32A16,16,0,0,1,4.687,4.687,16,16,0,0,1,27.314,27.314,15.9,15.9,0,0,1,16,32ZM7.122,21.688c.8,1.386,4.981,1.823,5.344,1.823h.486l.33,0c6.706,0,10.393-3.7,10.662-10.7a2.914,2.914,0,0,0,1.707-1.952l0,0a1.946,1.946,0,0,1-1.167.5,1.171,1.171,0,0,1-.252-.027,2.178,2.178,0,0,0,.935-1.709c-.411.122-.822.253-1.22.379-.318.1-.645.206-.974.306a3.4,3.4,0,0,0-2.763-1.289,4.518,4.518,0,0,0-1.137.151A4.587,4.587,0,0,0,15.9,13.493c-3.659-.158-5.7-1.743-7.8-3.643a3.438,3.438,0,0,0-.212,2.976c.294.913.8,1.69,1.185,1.805a.668.668,0,0,1-.128.011,2.308,2.308,0,0,1-1.332-.468c-.073,1.945,1.157,2.7,2.346,3.437.112.069.223.137.333.207a3.094,3.094,0,0,1-.482.043,2.13,2.13,0,0,1-.665-.113L8.991,17.7c.292,2.125,1.787,2.489,2.879,2.754.132.032.257.062.371.094a6.741,6.741,0,0,1-4.206,1.171c-.3,0-.6-.012-.914-.036Z"/>
  </g>
</svg>
