<svg xmlns="http://www.w3.org/2000/svg" width="11.975" height="11.964" viewBox="0 0 11.975 11.964">
  <g id="cart" transform="translate(0)">
    <g id="cart-2" data-name="cart">
      <path
        id="Shape"
        d="M11.864.154A.429.429,0,0,0,11.537,0H9.225V1.227a1.081,1.081,0,0,1-2.158,0V0H4.909V1.227a1.054,1.054,0,0,1-1.08,1.022A1.052,1.052,0,0,1,2.751,1.227V0H.438A.43.43,0,0,0,.111.154.472.472,0,0,0,0,.512L.779,7.646A1.448,1.448,0,0,0,2.19,9.1h7.6A1.448,1.448,0,0,0,11.2,7.646L11.972.512A.476.476,0,0,0,11.864.154Z"
        transform="translate(0 2.863)"
      />
      <path
        id="Shape-2"
        data-name="Shape"
        d="M.431,4.5A.422.422,0,0,0,.864,4.09V1.84c0-.632.672-1.022,1.295-1.022H3.238A.985.985,0,0,1,4.316,1.84V4.09a.433.433,0,0,0,.864,0V1.84A1.831,1.831,0,0,0,3.238,0H2.159A2.022,2.022,0,0,0,0,1.84V4.09A.422.422,0,0,0,.431,4.5Z"
        transform="translate(3.398)"
      />
    </g>
  </g>
</svg>
