<svg xmlns="http://www.w3.org/2000/svg" width="155.495" height="185.686" viewBox="0 0 155.495 185.686">
  <defs>
    <style>
      .cls-1 {
        fill: #fff;
      }

      .cls-2 {
        fill: #f0c42e;
      }

      .cls-3 {
        fill: #3a3a3a;
      }
    </style>
  </defs>
  <g id="credit" transform="translate(-0.505 -0.047)">
    <g id="Group" transform="translate(7 5)">
      <circle id="Oval" class="cls-1" cx="14.75" cy="14.75" r="14.75" transform="translate(119.5 49.127)"/>
      <path id="Shape" class="cls-1" d="M33.532,0,26.458,17.875,3.634,32.792a7.162,7.162,0,1,0,7.654,12.087C15.049,42.508,33.639,30.8,36.783,29a8.4,8.4,0,0,0,4.125-5.125l4.875-16-5.75-2.625C34.283,2.624,33.532,0,33.532,0Z" transform="translate(48.581 134.544)"/>
      <path id="Shape-2" data-name="Shape" class="cls-1" d="M129.758,179.314a7.162,7.162,0,0,1-7.067-6.023h-.009L117.581,142l-17.249-6.5a43.089,43.089,0,0,1-4.756-1.8,26.117,26.117,0,0,1-7.912-5.115,7.468,7.468,0,0,1-1.973-4.351,13.461,13.461,0,0,1,.34-4.663A22.63,22.63,0,0,1,88,114.336l14.751-26.211h-8.1l-22.935,38.9a11.946,11.946,0,0,1-4.478,4.367,12.155,12.155,0,0,1-5.893,1.528,11.944,11.944,0,0,1-6.06-1.652L5.9,102.157A12.038,12.038,0,0,1,1.652,85.725L48.711,5.9a11.947,11.947,0,0,1,4.478-4.368A12.151,12.151,0,0,1,59.082,0a11.936,11.936,0,0,1,6.06,1.653l49.39,29.114A12.034,12.034,0,0,1,118.775,47.2L102.975,74H110.5c.4.222,9.716,5.474,13.75,9.751a7.237,7.237,0,0,1,1.81,3.959,14.441,14.441,0,0,1-.081,4.406,24.157,24.157,0,0,1-1.4,5.052l-15.416,25.584.086.038c2.457,1.074,14.87,6.492,18,7.712a7.664,7.664,0,0,1,3.572,3.083,9.442,9.442,0,0,1,1.006,2.083l5.095,35.915-.028,0c.014.17.028.364.028.56a7.212,7.212,0,0,1-2.1,5.068A7.117,7.117,0,0,1,129.758,179.314ZM79.849,20.769h0l-50.107,85,30.116,17.753a2.941,2.941,0,0,0,1.494.4,3.033,3.033,0,0,0,2.613-1.464L81.787,92.222l-9.66,7.784c-.17.151-.342.289-.524.423l-.071.058a7.161,7.161,0,0,1-8.96-11.143l.029-.025a7.222,7.222,0,0,1,1.23-.891L83.748,74h8.783l18.493-31.371a3.042,3.042,0,0,0-1.062-4.108L79.849,20.769ZM59.078,9a3.033,3.033,0,0,0-2.614,1.465L9.406,90.3A3.038,3.038,0,0,0,10.467,94.4L21.989,101.2l50.1-85L60.572,9.4A2.942,2.942,0,0,0,59.078,9Z" transform="translate(0.491 0.794)"/>
    </g>
    <path id="Shape-3" data-name="Shape" class="cls-2" d="M61.348,132.923h0a11.944,11.944,0,0,1-6.06-1.652L5.9,102.157A12.038,12.038,0,0,1,1.652,85.725L48.711,5.9a11.937,11.937,0,0,1,4.478-4.367A12.147,12.147,0,0,1,59.082,0a11.936,11.936,0,0,1,6.06,1.653l49.392,29.114A12.033,12.033,0,0,1,118.776,47.2L71.718,127.028a11.944,11.944,0,0,1-4.478,4.367A12.155,12.155,0,0,1,61.348,132.923Zm18.5-112.154-50.106,85,30.116,17.753a2.941,2.941,0,0,0,1.494.4,3.033,3.033,0,0,0,2.613-1.464l47.058-79.829a3.04,3.04,0,0,0-1.063-4.108ZM59.078,9a3.033,3.033,0,0,0-2.614,1.465L9.406,90.3A3.04,3.04,0,0,0,10.465,94.4L21.988,101.2l50.1-85L60.572,9.405A2.942,2.942,0,0,0,59.078,9Z" transform="translate(0.508 0.047)"/>
    <g id="Group-2" data-name="Group" transform="translate(48 48)">
      <circle id="Oval-2" data-name="Oval" class="cls-3" cx="14.75" cy="14.75" r="14.75" transform="translate(72.5 0.333)"/>
      <path id="Shape-4" data-name="Shape" class="cls-3" d="M7.171,105.939h0a7.164,7.164,0,0,1-3.533-13.4L26.459,77.625,33.533,59.75c.007.025.8,2.646,6.5,5.249l5.75,2.625-4.875,16a8.47,8.47,0,0,1-4.125,5.125c-2.911,1.664-18.8,11.659-25.5,15.88A7.077,7.077,0,0,1,7.171,105.939Zm74.5-.627A7.162,7.162,0,0,1,74.6,99.289h-.009L69.491,68,52.241,61.5a43.43,43.43,0,0,1-4.755-1.8,26.1,26.1,0,0,1-7.912-5.114A7.468,7.468,0,0,1,37.6,50.231a13.452,13.452,0,0,1,.34-4.663,22.64,22.64,0,0,1,1.967-5.237l14.75-26.209H38.783L24.04,26c-.165.148-.342.29-.525.423l-.071.058a7.161,7.161,0,0,1-8.96-11.142h0v0l.031-.02a7.22,7.22,0,0,1,1.229-.891L35.658,0h26.75c.1.054,9.66,5.415,13.75,9.75a7.243,7.243,0,0,1,1.81,3.96,14.467,14.467,0,0,1-.081,4.405,23.934,23.934,0,0,1-1.4,5.052L61.075,48.751c.125.054,14.684,6.424,18.087,7.75a7.666,7.666,0,0,1,3.572,3.083,9.44,9.44,0,0,1,1.007,2.084l5.092,35.913-.028,0c.014.181.028.368.028.56a7.164,7.164,0,0,1-7.166,7.167Z" transform="translate(0.342 26)"/>
    </g>
  </g>
</svg>
