<svg xmlns="http://www.w3.org/2000/svg" width="138.338" height="163.868" viewBox="0 0 138.338 163.868">
  <defs>
    <style>
      .cls-1 {
        fill: #fff;
      }

      .cls-2 {
        fill: #3a3a3a;
      }

      .cls-3 {
        fill: #f0c42e;
      }

      .cls-4 {
        fill: #f0c52e;
      }
    </style>
  </defs>
  <g id="Group_1" data-name="Group 1" transform="translate(-1098.001 -1226.754)">
    <g id="Group" transform="translate(1104 1232)">
      <path id="Shape" class="cls-1" d="M21.242,157.833a7.43,7.43,0,0,1-4.6-13.263L40.2,124.207,43.282,107.1l9.4,1.849a3.442,3.442,0,0,0,.742.074,3.784,3.784,0,0,0,.549-.039l-.032,0-.015,0-.041,0a2.025,2.025,0,0,1-.26-.027L2.429,99.03A3.014,3.014,0,0,1,.054,95.514L7.465,57.272a3.018,3.018,0,0,1,2.951-2.427,3.1,3.1,0,0,1,.565.053l15.179,2.941.632-4.52a12.089,12.089,0,0,1,1.137-4.237,10,10,0,0,1,7.031-5.625c7.153-1.682,27.647-5.548,31.683-6.306l.063-.012a29.433,29.433,0,0,1,5.246-.464c3.559,0,8.453.668,11.552,3.853,5.5,5.652,6,8.449,6.008,8.476l9.246,21.112L125.5,72.285a7.429,7.429,0,0,1-.626,14.832L91.516,86.3a4.447,4.447,0,0,1-2.949-1.726,9.076,9.076,0,0,1-1.133-1.662L84.659,77.05l-3.93,14.331c-.012.082-.273,2.025,1.078,2.775,1.313.729,19.879,10.821,22.476,12.232l.178.1a6.732,6.732,0,0,1,1.906,1.444,10.818,10.818,0,0,1,2.714,5.489c.895,4.467,4.176,23.681,5.546,31.735l.006.035.009.056a7.428,7.428,0,0,1-14.112,4.513,7.308,7.308,0,0,1-.475-1.8L92.441,118.89l-22.885-8.631a10.361,10.361,0,0,0-2.013-.213c-1.082,0-2.466.224-2.919,1.292-1.206,2.852-5.736,16.74-5.779,16.874a11.034,11.034,0,0,1-2.773,3.853c-1.563,1.3-21.168,16.9-29.525,23.551l-.05.04A7.38,7.38,0,0,1,21.242,157.833ZM12.785,61.357,6.515,93.71l45.3,8.781,6.27-32.356L40.677,66.761l-2.9,13.223a7.428,7.428,0,1,1-14.735-.013l.016-.128,0-.026c0-.02.005-.039.008-.056l.64-4.406,1.618-11.567L12.785,61.357h0Zm41.283-4.339L42.511,58.4l-.547,2.5,20.214,3.917-9.9-1.919ZM87.1,32.978A17.463,17.463,0,0,1,72,6.736l.027-.042.03-.049.029-.049.005-.01c.059-.1.108-.183.155-.259l.01,0,3.15-5C75.411,1.319,76.013,0,78.564,0a112.844,112.844,0,0,1,22.375,2.438,4.3,4.3,0,0,1,2.535,3.3,90.674,90.674,0,0,1,1.074,9.237V15c.006.124.014.312.014.51,0,.038,0,.073,0,.11v.025l5.539.828a2.157,2.157,0,0,1,1.816,2.451,2.171,2.171,0,0,1-2.133,1.84,2.337,2.337,0,0,1-.318-.023L104,19.929A17.462,17.462,0,0,1,87.1,32.978ZM55,21.216H32.044a1.99,1.99,0,1,1,0-3.98H55a1.99,1.99,0,1,1,0,3.98Zm2.039-10H19.014a1.99,1.99,0,1,1,0-3.981H57.041a1.99,1.99,0,1,1,0,3.981Z" transform="translate(0.036 0.789)"/>
    </g>
    <path id="Shape-2" data-name="Shape" class="cls-2" d="M7.429,157.832a7.43,7.43,0,0,1-4.6-13.263l23.559-20.363L29.47,107.1l9.4,1.85a3.456,3.456,0,0,0,.739.073,3.905,3.905,0,0,0,.552-.039c.03,0,.059.006.089.01a1.015,1.015,0,0,0,.131.012,3.021,3.021,0,0,0,2.948-2.43L50.74,68.333a3.016,3.016,0,0,0-2.375-3.517l-9.9-1.919,1.788-5.881L28.7,58.4,23.965,79.984A7.428,7.428,0,1,1,9.23,79.97l.016-.128,0-.026c0-.02.005-.039.008-.056l.64-4.405,3.082-22.037a12.145,12.145,0,0,1,1.136-4.238,10.007,10.007,0,0,1,7.031-5.625c7.772-1.827,31.506-6.272,31.745-6.316a29.187,29.187,0,0,1,5.246-.464c3.56,0,8.453.668,11.553,3.853,5.485,5.639,6,8.448,6.008,8.476l9.246,21.112,26.742,2.168a7.431,7.431,0,0,1-.626,14.833L77.7,86.3c-2.438-.116-4.068-3.358-4.084-3.391l-2.773-5.856L66.918,91.382c0,.02-.294,2.012,1.077,2.774s22.441,12.211,22.653,12.326a6.752,6.752,0,0,1,1.906,1.445,10.824,10.824,0,0,1,2.715,5.49c1.051,5.249,5.377,30.743,5.561,31.826a7.428,7.428,0,0,1-14.112,4.512,7.224,7.224,0,0,1-.475-1.8l-7.615-29.062-22.885-8.631a10.367,10.367,0,0,0-2.014-.213c-1.082,0-2.467.224-2.918,1.292-1.223,2.892-5.734,16.735-5.779,16.874a11.02,11.02,0,0,1-2.773,3.853c-1.819,1.515-29.3,23.37-29.575,23.591A7.381,7.381,0,0,1,7.429,157.832ZM73.286,32.978a17.463,17.463,0,0,1-15.1-26.242l.027-.042.065-.11c.05-.086.1-.173.154-.258l.01,0,3.15-5C61.6,1.319,62.178,0,64.752,0A112.849,112.849,0,0,1,87.128,2.438a4.275,4.275,0,0,1,2.535,3.3,89.759,89.759,0,0,1,1.074,9.237c.007.158.014.346.014.543,0,.042,0,.086,0,.138l5.541.825A2.157,2.157,0,0,1,98.1,18.927a2.157,2.157,0,0,1-2.451,1.816l-5.468-.815A17.461,17.461,0,0,1,73.286,32.978Z" transform="translate(1111.812 1226.754)"/>
    <path id="Shape-3" data-name="Shape" class="cls-3" d="M53.97,54.142h0c.073.006.147.021.22.021a3.012,3.012,0,0,0,2.948-2.43L64.552,13.49a3.01,3.01,0,0,0-2.375-3.517L41.963,6.056l-1.286,5.862L58.09,15.292,51.819,47.646l-45.3-8.779,6.27-32.353L25.327,8.945,26.159,3,10.981.053A3.012,3.012,0,0,0,7.465,2.427L.054,40.671a3.008,3.008,0,0,0,2.375,3.516l51.2,9.923A3.05,3.05,0,0,0,53.97,54.142Z" transform="translate(1098.001 1281.597)"/>
    <path id="Shape-4" data-name="Shape" class="cls-4" d="M37.989,13.978H15.029a1.99,1.99,0,1,1,0-3.98H37.988a1.99,1.99,0,1,1,0,3.98Zm2.038-10H2A1.99,1.99,0,1,1,2,0H40.027a2,2,0,0,1,2,1.99A2,2,0,0,1,40.027,3.98Z" transform="translate(1115.015 1233.992)"/>
  </g>
</svg>
