<svg xmlns="http://www.w3.org/2000/svg" width="96.953" height="54.99" viewBox="0 0 96.953 54.99">
  <defs>
    <style>
      .cls-1 {
        fill: #363636;
      }
    </style>
  </defs>
  <g id="popular-1" transform="translate(0)">
    <path id="Shape" class="cls-1" d="M16.806,32.464V19.828a2.352,2.352,0,0,1,2.335-2.37l8.326,1.581V10.845c0-2.355-1.708-3.431-4.2-4.265L.078,0C1.694,1.391,1.967,2.04,1.967,4.4V49.6c0,2.356-.45,4.066-1.967,5.21L23.265,47.75c2.4-.833,4.2-4.216,4.2-6.572V33.265l-8.326,1.567a2.35,2.35,0,0,1-2.335-2.368Z" transform="translate(67.325 0.175)"/>
    <path id="Shape-2" data-name="Shape" class="cls-1" d="M63.732,54.763c-3.45,0-20.558-1.711-22.5-1.906l-.024,0L32.15,39.333c-.043-.076-1.078-1.86-2.433-1.86-1.391,0-2.494,1.81-2.5,1.828L19.076,50.968,2.6,49.565a2.458,2.458,0,0,1-1.3-.473A3.752,3.752,0,0,1,0,45.812L0,9.532A6.788,6.788,0,0,1,.3,7.491,3.114,3.114,0,0,1,2.839,5.145C5.68,4.758,57.015.514,62.859.031l.08-.007A3.426,3.426,0,0,1,63.365,0c1.144,0,3.806.437,3.806,4.483V49.739c0,.027.075,2.74-1.284,4.152A2.874,2.874,0,0,1,63.732,54.763ZM49.14,15.215c-4.654,0-8.44,5.249-8.44,11.7s3.786,11.7,8.44,11.7,8.442-5.249,8.442-11.7S53.795,15.215,49.14,15.215ZM12.983,16.642c-3.692,0-6.7,4.609-6.7,10.275s3,10.274,6.7,10.274,6.7-4.609,6.7-10.274S16.675,16.642,12.983,16.642ZM87.531,33.106h0a1.84,1.84,0,0,1-1.824-1.851V21.386a1.84,1.84,0,0,1,1.824-1.85l7.6,1.444c.9.294,1.824.743,1.824,1.851v6.993c0,1-.641,1.423-1.824,1.851l-7.6,1.431Z" transform="translate(0 0)"/>
  </g>
</svg>
