<svg id="popular-5"
  xmlns="http://www.w3.org/2000/svg" width="56.009" height="97.982" viewBox="0 0 56.009 97.982">
  <defs>
    <style>
      .cls-1 {
        fill: #363636;
      }
    </style>
  </defs>
  <path id="Shape" class="cls-1" d="M39.5,97.982H13.473a3.671,3.671,0,0,1-3.516-3.028L8.342,84.187a1.283,1.283,0,0,1,1.3-1.516H43.333a1.282,1.282,0,0,1,1.3,1.516L43.022,94.954A3.673,3.673,0,0,1,39.5,97.982ZM43.9,79.61H9.083A9.145,9.145,0,0,1,0,70.425V27.557a9.146,9.146,0,0,1,9.082-9.186H43.9a8.966,8.966,0,0,1,6.414,2.7,9.17,9.17,0,0,1,2.668,6.487V32.2h1.515a1.534,1.534,0,0,1,1.515,1.532v7.654a1.524,1.524,0,0,1-1.514,1.531H52.98V51.7h1.515a.766.766,0,0,1,.757.766V66.246a.767.767,0,0,1-.757.764H52.98v3.415A9.144,9.144,0,0,1,43.9,79.61ZM34.082,58.178a5.358,5.358,0,1,0,5.3,5.359A5.335,5.335,0,0,0,34.082,58.178Zm-15.137,0a5.358,5.358,0,1,0,5.3,5.359A5.335,5.335,0,0,0,18.945,58.178ZM26.49,42.867a6.124,6.124,0,1,0,6.055,6.124A6.1,6.1,0,0,0,26.49,42.867ZM42.384,44.04a5.358,5.358,0,1,0,5.3,5.359A5.334,5.334,0,0,0,42.384,44.04Zm-31.789,0a5.358,5.358,0,1,0,5.3,5.359A5.334,5.334,0,0,0,10.595,44.039ZM34.082,29.088a5.358,5.358,0,1,0,5.3,5.358A5.334,5.334,0,0,0,34.082,29.088Zm-15.137,0a5.358,5.358,0,1,0,5.3,5.358A5.334,5.334,0,0,0,18.945,29.088ZM43.333,15.31H9.646a1.282,1.282,0,0,1-1.3-1.515L9.957,3.028A3.67,3.67,0,0,1,13.474,0H39.506a3.67,3.67,0,0,1,3.514,3.026L44.639,13.8a1.282,1.282,0,0,1-1.306,1.514Z"/>
</svg>
