<svg xmlns="http://www.w3.org/2000/svg" width="85.869" height="117" viewBox="0 0 85.869 117">
  <defs>
    <style>
      .cls-1 {
        fill: #363636;
      }
    </style>
  </defs>
  <g id="popular-2" transform="translate(-0.142)">
    <path id="Shape" class="cls-1" d="M50.1,117H35.766V102.693A6.068,6.068,0,0,1,39.4,97.134V61.888H31.356V59.13H54.512v2.758H46.466v2.974h4.8l5.051-1.213v6.711l-5.051-1.213h-4.8v27.99a6.064,6.064,0,0,1,3.636,5.557V117ZM82.684,56.8H3.188A3.187,3.187,0,0,1,0,53.612V7.2A3.191,3.191,0,0,1,3.188,4.011H82.679a3.207,3.207,0,0,1,2.254.933A3.165,3.165,0,0,1,85.869,7.2V53.612A3.187,3.187,0,0,1,82.684,56.8ZM13.2,8.4V52.408H69.481V8.4ZM8.017,23.577a3.186,3.186,0,0,0-3.182,3.187v7.283a3.194,3.194,0,0,0,3.19,3.189H8.25V23.576H8.017Zm70.241,2.681A4.147,4.147,0,1,0,82.4,30.4,4.151,4.151,0,0,0,78.258,26.258ZM54.512,2.758H31.355V0H54.512V2.757Z" transform="translate(0.142)"/>
  </g>
</svg>
