<svg xmlns="http://www.w3.org/2000/svg" width="107.314" height="64.99" viewBox="0 0 107.314 64.99">
  <defs>
    <style>
      .cls-1 {
        fill: #363636;
      }
    </style>
  </defs>
  <g id="popular-4" transform="translate(0 -0.86)">
    <path id="Shape" class="cls-1" d="M98.967,0a10.408,10.408,0,0,1,1.209,4.818v21.1a10.512,10.512,0,0,1-7.246,9.9,18.691,18.691,0,0,1-8.051,10.432c-8.676,5.231-31.124,4.837-31.2,4.837s-22.513.4-31.189-4.837A18.731,18.731,0,0,1,14.45,35.973,10.507,10.507,0,0,1,6.694,25.92V4.819A10.405,10.405,0,0,1,7.833.126C4.17,1.035,0,2.844,0,6.36V36.343C0,46.594,11.839,60.776,53.657,60.776s53.657-14.182,53.657-24.433V6.36C107.313,2.676,102.738.866,98.967,0Z" transform="translate(0 5.074)"/>
    <path id="Shape-2" data-name="Shape" class="cls-1" d="M75.6,38.6H10.075A10.087,10.087,0,0,1,0,28.522V10.075A10.086,10.086,0,0,1,10.075,0H75.6A10.086,10.086,0,0,1,85.672,10.075V28.522A10.087,10.087,0,0,1,75.6,38.6ZM73.209,25.552a1.569,1.569,0,1,0,1.57,1.569A1.57,1.57,0,0,0,73.209,25.552Zm-4.038,0a1.569,1.569,0,1,0,1.568,1.569A1.57,1.57,0,0,0,69.17,25.552Zm-4.037,0A1.569,1.569,0,1,0,66.7,27.121,1.57,1.57,0,0,0,65.133,25.552Zm-7.654,0a1.569,1.569,0,1,0,1.568,1.569A1.561,1.561,0,0,0,57.479,25.552Zm-4.039,0a1.569,1.569,0,1,0,1.57,1.569A1.562,1.562,0,0,0,53.44,25.552Zm-4.038,0a1.569,1.569,0,1,0,1.569,1.569A1.556,1.556,0,0,0,49.4,25.552Zm-8.29,0a1.569,1.569,0,1,0,1.569,1.569A1.556,1.556,0,0,0,41.112,25.552Zm-20.834,0a1.569,1.569,0,1,0,1.569,1.569A1.57,1.57,0,0,0,20.278,25.552Zm37.2-3.985a1.569,1.569,0,1,0,1.568,1.569A1.56,1.56,0,0,0,57.479,21.567Zm-16.367,0a1.569,1.569,0,1,0,1.569,1.569A1.556,1.556,0,0,0,41.112,21.567Zm32.1-.054a1.569,1.569,0,1,0,1.57,1.57A1.57,1.57,0,0,0,73.209,21.513Zm-8.076,0a1.569,1.569,0,1,0,1.568,1.57A1.571,1.571,0,0,0,65.133,21.513Zm-40.6,0a1.569,1.569,0,1,0,1.568,1.57A1.571,1.571,0,0,0,24.532,21.513Zm-4.254,0a1.569,1.569,0,1,0,1.569,1.57A1.57,1.57,0,0,0,20.278,21.513Zm-4.464,0a1.569,1.569,0,1,0,1.571,1.57A1.571,1.571,0,0,0,15.814,21.513Zm57.395-3.827a1.569,1.569,0,1,0,1.57,1.569A1.57,1.57,0,0,0,73.209,17.686Zm-8.076,0A1.569,1.569,0,1,0,66.7,19.255,1.57,1.57,0,0,0,65.133,17.686Zm-7.654,0a1.569,1.569,0,1,0,1.568,1.569A1.561,1.561,0,0,0,57.479,17.686Zm-4.039,0a1.569,1.569,0,1,0,1.57,1.569A1.562,1.562,0,0,0,53.44,17.686Zm-4.038,0a1.569,1.569,0,1,0,1.569,1.569A1.556,1.556,0,0,0,49.4,17.686Zm-8.29,0a1.569,1.569,0,1,0,1.569,1.569A1.556,1.556,0,0,0,41.112,17.686Zm-12.541-.213a1.57,1.57,0,1,0,1.569,1.57A1.573,1.573,0,0,0,28.571,17.473Zm-4.039,0a1.57,1.57,0,1,0,1.568,1.57A1.572,1.572,0,0,0,24.532,17.473Zm-4.254,0a1.57,1.57,0,1,0,1.569,1.57A1.571,1.571,0,0,0,20.278,17.473Zm-4.464,0a1.57,1.57,0,1,0,1.571,1.57A1.571,1.571,0,0,0,15.814,17.473Zm-4.036,0a1.57,1.57,0,1,0,1.569,1.57A1.572,1.572,0,0,0,11.777,17.473Zm61.431-3.826a1.569,1.569,0,1,0,1.57,1.569A1.57,1.57,0,0,0,73.209,13.647Zm-8.076,0A1.569,1.569,0,1,0,66.7,15.215,1.57,1.57,0,0,0,65.133,13.647Zm-15.731,0a1.569,1.569,0,1,0,1.569,1.569A1.556,1.556,0,0,0,49.4,13.647Zm-8.29,0a1.569,1.569,0,1,0,1.569,1.569A1.556,1.556,0,0,0,41.112,13.647Zm-4.039,0a1.569,1.569,0,1,0,1.568,1.569A1.57,1.57,0,0,0,37.073,13.647Zm-8.5-.212A1.568,1.568,0,1,0,30.14,15,1.571,1.571,0,0,0,28.571,13.435Zm-4.039,0A1.568,1.568,0,1,0,26.1,15,1.57,1.57,0,0,0,24.532,13.435Zm-4.254,0A1.568,1.568,0,1,0,21.847,15,1.57,1.57,0,0,0,20.278,13.435Zm-4.464,0A1.568,1.568,0,1,0,17.385,15,1.57,1.57,0,0,0,15.814,13.435Zm-4.036,0A1.568,1.568,0,1,0,13.346,15,1.57,1.57,0,0,0,11.777,13.435ZM73.209,9.608a1.569,1.569,0,1,0,1.57,1.57A1.57,1.57,0,0,0,73.209,9.608Zm-4.038,0a1.569,1.569,0,1,0,1.568,1.57A1.571,1.571,0,0,0,69.17,9.608Zm-4.037,0a1.569,1.569,0,1,0,1.568,1.57A1.571,1.571,0,0,0,65.133,9.608Zm-7.654,0a1.569,1.569,0,1,0,1.568,1.57A1.563,1.563,0,0,0,57.479,9.608Zm-4.039,0a1.569,1.569,0,1,0,1.57,1.57A1.561,1.561,0,0,0,53.44,9.608Zm-4.038,0a1.569,1.569,0,1,0,1.569,1.57A1.556,1.556,0,0,0,49.4,9.608Zm-8.29,0a1.569,1.569,0,1,0,1.569,1.57A1.556,1.556,0,0,0,41.112,9.608ZM24.532,9.4a1.569,1.569,0,1,0,1.568,1.57A1.571,1.571,0,0,0,24.532,9.4Zm-8.718,0a1.569,1.569,0,1,0,1.571,1.57A1.571,1.571,0,0,0,15.814,9.4Z" transform="translate(10.486 0.86)"/>
  </g>
</svg>
