<svg id="popular-3"
  xmlns="http://www.w3.org/2000/svg" width="71.022" height="87.001" viewBox="0 0 71.022 87.001">
  <defs>
    <style>
      .cls-1 {
        fill: #363636;
      }
    </style>
  </defs>
  <path id="Shape" class="cls-1" d="M54.2,87H28.13a1.071,1.071,0,0,1-1.011-1.049V82.781a1,1,0,0,1,1.011-.972h9.517V79.483H18.863a3.386,3.386,0,0,1-3.269,2.326H3.559a3.578,3.578,0,0,1-2.5-1.019A3.408,3.408,0,0,1,0,78.329V75.311a3.589,3.589,0,0,1,3.557-3.526H15.593a3.482,3.482,0,0,1,3.181,2.148H37.647V71.426H44.6V81.809h9.6a.941.941,0,0,1,.931.971v3.173A1.012,1.012,0,0,1,54.2,87Zm-.307-18.619H7.148a7.11,7.11,0,0,1-5.036-2.093A7.048,7.048,0,0,1,0,61.261v-46.9A7.093,7.093,0,0,1,7.148,7.34H53.915a7.039,7.039,0,0,1,6.751,5.05,23.318,23.318,0,0,1,.355,38.524V61.261a7.161,7.161,0,0,1-7.126,7.121ZM12.238,50.308a5.922,5.922,0,1,0,5.9,5.922A5.918,5.918,0,0,0,12.238,50.308Zm35.524-38.7A20.124,20.124,0,1,0,67.82,31.735,20.114,20.114,0,0,0,47.762,11.611ZM7.841,13.963a1.429,1.429,0,0,0-1,.418,1.407,1.407,0,0,0-.414,1.005v14.16a1.428,1.428,0,0,0,.414,1,1.412,1.412,0,0,0,1,.418h8.941a1.412,1.412,0,0,0,1-.418,1.428,1.428,0,0,0,.414-1V15.386a1.429,1.429,0,0,0-.414-1.005,1.414,1.414,0,0,0-1-.418Zm45.508-8.95H7.672V1.49A1.516,1.516,0,0,1,9.053,0H52.038a1.47,1.47,0,0,1,1.311,1.49V5.011Z"/>
  <ellipse id="Oval" class="cls-1" cx="12.188" cy="12.229" rx="12.188" ry="12.229" transform="translate(35.574 19.506)"/>
  <circle id="Oval-2" data-name="Oval" class="cls-1" cx="1.435" cy="1.435" r="1.435" transform="translate(30.127 30.301)"/>
  <circle id="Oval-3" data-name="Oval" class="cls-1" cx="1.435" cy="1.435" r="1.435" transform="translate(62.528 30.301)"/>
  <circle id="Oval-4" data-name="Oval" class="cls-1" cx="1.435" cy="1.435" r="1.435" transform="translate(37.674 16.559)"/>
  <ellipse id="Oval-5" data-name="Oval" class="cls-1" cx="1.43" cy="1.436" rx="1.43" ry="1.436" transform="translate(54.985 44.04)"/>
  <circle id="Oval-6" data-name="Oval" class="cls-1" cx="1.435" cy="1.435" r="1.435" transform="translate(54.262 16.13)"/>
  <circle id="Oval-7" data-name="Oval" class="cls-1" cx="1.435" cy="1.435" r="1.435" transform="translate(38.393 44.471)"/>
</svg>
