<svg xmlns="http://www.w3.org/2000/svg" width="132.026" height="69.008" viewBox="0 0 132.026 69.008">
  <defs>
    <style>
      .cls-1 {
        fill: #363636;
      }
    </style>
  </defs>
  <g id="poppular-6" transform="translate(0)">
    <path id="Shape" class="cls-1" d="M93.9,69.008a2.217,2.217,0,0,1-2.321-1.9c-.124-.49-1.469-10.128-3.019-21.82-1.534-11.551-2.862-20.862-2.939-20.869a24.63,24.63,0,0,0-2.194,3.136l-.431.681-.077.122c-2.094,3.319-2.219,3.518-5.5,3.518l-.645,0H76.71l-.92,0h-4.36V37.5l5.133.076c4.72.077,5.214.129,5.882.615,1.576,1.16,1.622,1.468,1.622,10.976,0,9.591-.028,9.8-1.52,11.05l-.851.7H50.33l-.851-.695c-1.493-1.257-1.522-1.463-1.522-11.05,0-9.507.046-9.815,1.625-10.977.667-.486,1.162-.537,5.881-.615L60.6,37.5v-5.63h-4.36l-.921,0h-.062l-.642,0c-3.283,0-3.408-.2-5.5-3.513l0-.007-.007-.01-.5-.792a24.92,24.92,0,0,0-2.193-3.136c-.077.007-1.406,9.318-2.939,20.869-1.577,11.894-2.894,21.33-3.019,21.821a2.214,2.214,0,0,1-2.321,1.9,2.308,2.308,0,0,1-1.707-.643,2.646,2.646,0,0,1-.641-1.977c.023-.574.934-7.863,2.708-21.666,1.473-11.253,2.631-20.512,2.58-20.64-.051-.1-4.526-.18-10.188-.18-9.706,0-10.127-.02-11.246-.538a4.58,4.58,0,0,1-2.578-4.087,4.728,4.728,0,0,1,3.792-5.294l1.186-.283.129-2.544.13-2.544,1.03-.077.415-.025c1.787-.1,1.787-.1,1.778-3.2,0-.1,0-.212,0-.322v-.02c0-.118,0-.239,0-.365A21.506,21.506,0,0,1,25.773.488C25.985.123,26.33,0,27.141,0A2.549,2.549,0,0,1,28.56.309c.208.207.31,1.493.31,3.932s.1,3.725.31,3.932a3.209,3.209,0,0,0,1.65.308c1.62,0,1.651.058,1.651,3.11v2.287H99.545V11.591c0-3.052.031-3.11,1.651-3.11a3.2,3.2,0,0,0,1.65-.308c.208-.206.309-1.492.309-3.932s.1-3.724.311-3.932A2.556,2.556,0,0,1,104.883,0c.813,0,1.158.123,1.367.488a21.469,21.469,0,0,1,.257,4.112q0,.189,0,.365v.02q0,.163,0,.315c-.008,3.1-.008,3.1,1.779,3.208l.416.025,1.03.077.131,2.544.127,2.544,1.187.283a4.73,4.73,0,0,1,3.792,5.294,4.587,4.587,0,0,1-2.58,4.087c-1.118.518-1.538.538-11.243.538-5.664,0-10.14.079-10.19.18-.052.127,1.056,9,2.577,20.64,1.725,13.391,2.687,21.086,2.71,21.666a2.642,2.642,0,0,1-.639,1.977A2.3,2.3,0,0,1,93.9,69.008ZM65.96,40.127a8.581,8.581,0,0,0-2.656.481,9.553,9.553,0,0,0-6.061,6.168,10.986,10.986,0,0,0,.283,5.784,10.165,10.165,0,0,0,4.567,4.935c1.28.638,1.72.719,3.919.719s2.64-.081,3.921-.719A10.156,10.156,0,0,0,74.5,52.56a10.956,10.956,0,0,0,.284-5.784,9.466,9.466,0,0,0-6.166-6.168A8.587,8.587,0,0,0,65.96,40.127ZM15.736,6.84A55.723,55.723,0,0,1,7.59,6.323C3.957,5.715.977,4.8.343,4.086.117,3.837-.008,3.7,0,3.565c.01-.153.187-.3.575-.634C1.852,1.839,6.572.74,12.052.258,12.984.175,14.111.13,15.312.13A27.077,27.077,0,0,1,20.72.54a2.566,2.566,0,0,1,2.218,2.853,2.85,2.85,0,0,1-1.624,2.981C20.771,6.661,18.634,6.84,15.736,6.84Z" transform="translate(0)"/>
    <path id="Shape-2" data-name="Shape" class="cls-1" d="M34.5,54.544h0a5.432,5.432,0,0,1-3.381-1.2,5.538,5.538,0,0,1-1.967-3.223,5.68,5.68,0,0,1,3.069-5.73,6.617,6.617,0,0,1,2.219-.489,5.382,5.382,0,0,1,5.158,4.138,5.26,5.26,0,0,1-5.1,6.505ZM61.671,6.89A52.4,52.4,0,0,1,50.935,5.779c-3.11-.695-4.893-1.564-4.893-2.384,0-1.107,5.544-2.6,11.864-3.186,1.041-.092,2.246-.14,3.486-.14a24.928,24.928,0,0,1,5.1.4,2.7,2.7,0,0,1,2.373,3.085c0,1.436-.412,2.213-1.422,2.681S64.764,6.89,61.671,6.89ZM7.5,6.89a24.426,24.426,0,0,1-5.231-.385C.466,5.966,0,5.358,0,3.55,0,1.225.59.774,4.513.105A8.8,8.8,0,0,1,5.686.057c1.956,0,5.756.19,7.726.435,4.125.51,7.763,1.471,9.054,2.389a.618.618,0,0,1,.317.661c-.145.544-1.206,1.151-2.988,1.708a41.484,41.484,0,0,1-7.026,1.383A48.739,48.739,0,0,1,7.5,6.89Zm77.49-.128c-5.41,0-6.136-.151-7.068-1.465a5.156,5.156,0,0,1-.154-3.572c.41-.718,1.661-1.261,3.43-1.491A20.978,20.978,0,0,1,84.184,0c1,0,2.182.08,3.771.209C93.84.691,98.517,1.739,99.871,2.881c.388.331.565.482.575.636.009.134-.116.272-.342.521-.636.709-3.616,1.629-7.249,2.237A44.323,44.323,0,0,1,84.989,6.763Z" transform="translate(31.579 0.049)"/>
  </g>
</svg>
