<svg xmlns="http://www.w3.org/2000/svg" width="170.436" height="194" viewBox="0 0 170.436 194">
  <defs>
    <style>
      .cls-1 {
        fill: #fff;
      }

      .cls-2 {
        fill: #3a3a3a;
      }

      .cls-3 {
        fill: #f0c42e;
      }
    </style>
  </defs>
  <g id="warranty" transform="translate(-0.648)">
    <g id="Group" transform="translate(6 6)">
      <path id="Shape" class="cls-1" d="M54.934,161.189a25.528,25.528,0,0,1-16.553-6.367c-.759-.664-1.863-1.529-2.838-2.292l-.017-.013C26.1,145.11,6.486,129.7.074,93.973L0,93.564l.024-.414c.045-.752.754-7.57,11.631-15.313.859-.608,3.885-2.592,6.756-2.592A5.2,5.2,0,0,1,22.6,77.183L34.383,92.05l2.687,3.39.191.24.219.311a6.569,6.569,0,0,1-1.246,8.431l-5.893,5.892c-.17,2.053-.211,7.245,3.086,11.1a18.98,18.98,0,0,0,9.28,6.268l5.486-2.743a11.957,11.957,0,0,1,5.512-1.552,6.864,6.864,0,0,1,5.594,2.677c1.937,2.532,10.756,13.464,12.5,15.63l.04.05.065.08.156.207a6.837,6.837,0,0,1-.168,8.208c-1.446,1.768-6.5,7.7-10.872,9.778A14.4,14.4,0,0,1,54.934,161.189ZM17.809,82.417h0a11.607,11.607,0,0,0-2.12,1.142,29.9,29.9,0,0,0-6.748,6.331A11.579,11.579,0,0,0,7.07,93.33c6.052,32.687,24.1,46.869,32.78,53.684l.065.051.033.026.005,0,.017.013c1.169.92,2.179,1.714,3.019,2.448a18.706,18.706,0,0,0,11.944,4.632,7.941,7.941,0,0,0,3.081-.49c2.191-1.044,5.83-4.71,8.283-7.674a.044.044,0,0,1,0-.01L66.278,146c-.094-.116-10.234-12.673-12.485-15.606h-.028l-.06,0a5.183,5.183,0,0,0-2.071.648l-.218.119-7.644,3.822-1.083-.154c-1.332-.189-8.295-1.5-14.583-8.856-6.438-7.529-4.608-17.516-4.527-17.937l.2-1.055,7.528-7.527-13.5-17.031Zm60.986-5.685a29.734,29.734,0,0,1-6.175-.624A2.5,2.5,0,0,1,71.4,71.921L78.786,64.4c-1.042-3.863-3.366-5.37-4.659-5.925l-8.294,7.258a2.5,2.5,0,0,1-3.993-1.019,19.219,19.219,0,0,1-.169-13.108A18.67,18.67,0,0,1,64.59,46.1,18.272,18.272,0,0,1,78.552,39.74a22.283,22.283,0,0,1,6.663,1.051L88.51,37.5,79.273,27.216l-3.266,4.717L62.283,11.892l10.6-10.6L92.926,15.013l-4.717,3.266,10.284,9.236,3.488-3.488a22.163,22.163,0,0,1-.859-7.92,17.974,17.974,0,0,1,4.4-10.552,15.476,15.476,0,0,1,12-5.556,20.591,20.591,0,0,1,8.824,2.116,2.46,2.46,0,0,1,.678.533l.186.207a2.5,2.5,0,0,1-.1,3.446l-6.8,6.729a9.052,9.052,0,0,0,4.466,5.33l8.221-7.4a2.5,2.5,0,0,1,4.1,1.272c2.123,8.81.477,15.608-5.033,20.783-2.571,2.414-6.353,3.638-11.24,3.639a32.367,32.367,0,0,1-3.322-.181l16.944,16.96c2.158,2.6,4.913,8.942-.1,14.3l-.1.1-5.518,5.516a9.805,9.805,0,0,1-6.852,2.824,12.261,12.261,0,0,1-7.451-2.725l-.172-.157L98.034,57.076a21.9,21.9,0,0,1-.7,6.185,20.6,20.6,0,0,1-3.3,6.9C90.906,74.46,85.635,76.731,78.795,76.731Zm-5.274-23.54a2.532,2.532,0,0,1,.377.029c.338.052,8.293,1.4,10.083,11.536a2.5,2.5,0,0,1-.68,2.187L78.6,71.73H78.7c3.652,0,8.576-.783,11.295-4.512a16.716,16.716,0,0,0,2.327-14.527,2.5,2.5,0,0,1,.581-2.592l18.5-18.668a2.5,2.5,0,0,1,2.43-.653,30.517,30.517,0,0,0,6.981.873c2.458,0,5.811-.4,7.818-2.283,3.31-3.108,4.679-6.807,4.309-11.642L126.9,23.174a2.507,2.507,0,0,1-2.473.511c-.338-.114-8.3-2.894-9.307-11.192a2.517,2.517,0,0,1,.724-2.08l5.047-4.993A14.381,14.381,0,0,0,117.524,5,10.477,10.477,0,0,0,109.3,8.826a13.659,13.659,0,0,0-3.212,9.858,16.57,16.57,0,0,0,1.054,5.018,2.479,2.479,0,0,1-.527,2.756l-19,19a2.5,2.5,0,0,1-2.818.5,16.493,16.493,0,0,0-6.249-1.22A13.128,13.128,0,0,0,68.426,49.3a14.744,14.744,0,0,0-2.759,9.932l6.2-5.428A2.513,2.513,0,0,1,73.521,53.191Zm40.46-17.254-2.036,2.053L99.04,51.012l18.643,18.645a7.232,7.232,0,0,0,4.1,1.508,5.035,5.035,0,0,0,3.473-1.422l5.478-5.476c2.989-3.26.454-6.879-.085-7.572L111.947,37.991ZM78.764,19.167h0L92.049,33.956l-1.192,1.192,4.094-4.092L80.16,17.769l3.95-2.733L73.485,7.759l-4.731,4.732L76.03,23.116l2.733-3.947Z" transform="translate(0.787 26.811)"/>
      <path id="Shape-2" data-name="Shape" class="cls-1" d="M57.4,157.5h0V131.276A65.931,65.931,0,1,1,130.086,81.02c-.02.086-.039.172-.059.257l0,.015c-.037.161-.074.327-.116.5-.108.439-.225.884-.329,1.277-.027.1-.052.2-.077.3l0,.009c-.042.164-.084.331-.133.506a94.678,94.678,0,0,1-17.375,33.6,124.773,124.773,0,0,1-24.058,22.852A151.28,151.28,0,0,1,66.6,153.362c-5.5,2.752-9.052,4.082-9.2,4.137ZM65.921,7a58.914,58.914,0,0,0-7.628,117.334l6.1.787v21.5a142.3,142.3,0,0,0,19.719-12.174c19.987-14.743,32.943-32.387,38.507-52.442.035-.131.06-.231.082-.324l.1-.4c.1-.357.189-.715.3-1.161.032-.132.062-.262.09-.388l.029-.127.029-.13.006-.027.006-.027A58.9,58.9,0,0,0,65.921,7Z" transform="translate(33.24 0.002)"/>
    </g>
    <path id="Shape-3" data-name="Shape" class="cls-2" d="M54.935,85.941a25.543,25.543,0,0,1-16.554-6.364c-.711-.622-1.7-1.4-2.837-2.292l-.018-.014C26.1,69.865,6.486,54.453.074,18.728L0,18.319.024,17.9c.044-.751.745-7.563,11.631-15.313C12.518,1.984,15.557,0,18.411,0A5.2,5.2,0,0,1,22.6,1.938C24.085,3.819,33.189,15.3,37.034,20.15l.227.287.219.311a6.57,6.57,0,0,1-1.246,8.431l-5.893,5.893c-.17,2.053-.21,7.246,3.086,11.1a18.977,18.977,0,0,0,9.28,6.268L48.193,49.7A12.017,12.017,0,0,1,53.7,48.142,6.862,6.862,0,0,1,59.3,50.82c2.011,2.629,11.511,14.4,12.587,15.733l.022.027.155.207A6.839,6.839,0,0,1,71.894,75c-1.447,1.769-6.509,7.7-10.872,9.778A14.42,14.42,0,0,1,54.935,85.941ZM17.812,7.17h0a11.2,11.2,0,0,0-2.119,1.142,29.891,29.891,0,0,0-6.75,6.33,11.562,11.562,0,0,0-1.871,3.44c6.051,32.686,24.1,46.868,32.78,53.684l.023.018c1.217.957,2.267,1.783,3.116,2.525a18.71,18.71,0,0,0,11.944,4.631,7.9,7.9,0,0,0,3.081-.491c2.191-1.044,5.83-4.71,8.285-7.674l0-.01c-3.11-3.852-10.553-13.087-12.5-15.624l-.071,0h-.016a5.27,5.27,0,0,0-2.072.648l-.218.118-7.644,3.823-1.082-.155c-1.332-.189-8.293-1.5-14.584-8.856C21.675,43.2,23.5,33.2,23.583,32.782l.2-1.055L31.314,24.2,17.812,7.17Z" transform="translate(0.648 102.057)"/>
    <path id="Shape-4" data-name="Shape" class="cls-3" d="M18.194,76.731a29.789,29.789,0,0,1-6.175-.624A2.5,2.5,0,0,1,10.8,71.921L18.185,64.4c-1.041-3.862-3.366-5.37-4.658-5.925l-8.3,7.258a2.5,2.5,0,0,1-3.993-1.018,19.23,19.23,0,0,1-.169-13.109A18.807,18.807,0,0,1,3.989,46.1,18.272,18.272,0,0,1,17.951,39.74a22.318,22.318,0,0,1,6.664,1.051L41.38,24.027a22.2,22.2,0,0,1-.859-7.921,17.966,17.966,0,0,1,4.4-10.551A15.482,15.482,0,0,1,56.925,0,20.245,20.245,0,0,1,65.75,2.116a2.476,2.476,0,0,1,.678.533l.185.207a2.5,2.5,0,0,1-.1,3.446l-6.8,6.729a9.056,9.056,0,0,0,4.465,5.33l8.221-7.4a2.5,2.5,0,0,1,4.1,1.272c2.123,8.809.477,15.607-5.033,20.783-2.57,2.414-6.352,3.638-11.242,3.638a35.27,35.27,0,0,1-6.839-.714L36.878,52.59a23.023,23.023,0,0,1,.455,7.372,20.623,20.623,0,0,1-3.894,10.2C30.305,74.46,25.034,76.731,18.194,76.731ZM12.92,53.19a2.509,2.509,0,0,1,.378.029c.338.052,8.293,1.4,10.083,11.536a2.5,2.5,0,0,1-.68,2.187L18,71.73h.111c3.649,0,8.57-.783,11.288-4.512a16.709,16.709,0,0,0,2.329-14.527,2.506,2.506,0,0,1,.582-2.594l18.5-18.667a2.5,2.5,0,0,1,2.43-.653,30.38,30.38,0,0,0,6.982.873c2.459,0,5.811-.4,7.818-2.283,3.31-3.108,4.679-6.808,4.308-11.642L66.3,23.173a2.5,2.5,0,0,1-2.472.511c-.338-.114-8.3-2.893-9.308-11.192a2.514,2.514,0,0,1,.725-2.08L60.29,5.42A14.4,14.4,0,0,0,56.925,5,10.486,10.486,0,0,0,48.7,8.825a13.655,13.655,0,0,0-3.211,9.857A16.656,16.656,0,0,0,46.547,23.7a2.488,2.488,0,0,1-.528,2.757l-19,19a2.5,2.5,0,0,1-2.817.5,16.893,16.893,0,0,0-6.25-1.219A13.13,13.13,0,0,0,7.826,49.3a14.7,14.7,0,0,0-2.759,9.932l6.2-5.428A2.508,2.508,0,0,1,12.92,53.19Z" transform="translate(61.249 26.809)"/>
    <g id="Group-2" data-name="Group" transform="translate(62 28)">
      <path id="Shape-5" data-name="Shape" class="cls-2" d="M59.59,74.887a12.262,12.262,0,0,1-7.45-2.725L51.967,72,35.75,55.786A23.146,23.146,0,0,0,35.2,51.3l1.562-1.578L55.4,68.368a7.216,7.216,0,0,0,4.1,1.509,5.033,5.033,0,0,0,3.473-1.422l5.478-5.476c2.988-3.258.455-6.88-.084-7.573L49.664,36.7,51.7,34.648c1.159.233,2.342.413,3.517.534L72.162,52.141c2.158,2.6,4.914,8.944-.1,14.3l-.1.1-5.518,5.516A9.813,9.813,0,0,1,59.59,74.887ZM26.226,36.209h0L16.989,25.927l-3.265,4.717L0,10.6,10.6,0,30.643,13.724,25.926,16.99l10.282,9.236-3.541,3.541L17.877,16.481l3.95-2.734L11.2,6.471,6.47,11.2l7.276,10.624,2.735-3.949L29.766,32.668l-3.539,3.54Z" transform="translate(0.932 0.098)"/>
    </g>
    <path id="Shape-6" data-name="Shape" class="cls-2" d="M57.4,157.5h0V131.276A65.931,65.931,0,1,1,130.086,81.02c-.057.254-.114.5-.177.77-.116.47-.237.929-.33,1.277-.027.1-.053.205-.079.306l0,.01c-.04.159-.082.323-.13.5a94.681,94.681,0,0,1-17.375,33.6,124.776,124.776,0,0,1-24.058,22.852A151.289,151.289,0,0,1,66.6,153.362c-5.5,2.752-9.052,4.082-9.2,4.137ZM65.921,7a58.914,58.914,0,0,0-7.628,117.333l6.1.787v21.5a142.3,142.3,0,0,0,19.719-12.174c19.986-14.742,32.942-32.386,38.507-52.442.032-.12.059-.226.083-.324l.1-.4c.121-.445.221-.837.3-1.161.042-.172.078-.335.118-.515l.029-.13.007-.027.006-.027A58.9,58.9,0,0,0,65.921,7Z" transform="translate(33.102)"/>
  </g>
</svg>
